HIERARCHY
ROOT joint_Root
{
	OFFSET 0.0 0.0 0.0
	CHANNELS 6 Xposition Yposition Zposition Zrotation Xrotation Yrotation 
	JOINT Hips
	{
		OFFSET -0.726466 93.3139 -2.00062
		CHANNELS 6 Xposition Yposition Zposition Zrotation Xrotation Yrotation 
		JOINT Spine
		{
			OFFSET 15.7357 0.0 0.0
			CHANNELS 6 Xposition Yposition Zposition Zrotation Xrotation Yrotation 
			JOINT Chest
			{
				OFFSET 8.98455 -0.406207 0.0
				CHANNELS 6 Xposition Yposition Zposition Zrotation Xrotation Yrotation 
				JOINT Neck
				{
					OFFSET 16.3773 0.0 0.0
					CHANNELS 6 Xposition Yposition Zposition Zrotation Xrotation Yrotation 
					JOINT Head
					{
						OFFSET 6.45672 0.0 0.0
						CHANNELS 6 Xposition Yposition Zposition Zrotation Xrotation Yrotation 
						End Site
						{
							OFFSET 0.0 0.0 0.0
						}
					}
				}
				JOINT Shoulder_L
				{
					OFFSET 12.9942 -0.242716 4.98039
					CHANNELS 6 Xposition Yposition Zposition Zrotation Xrotation Yrotation 
					JOINT UpperArm_L
					{
						OFFSET 5.34809 0.0 0.0
						CHANNELS 6 Xposition Yposition Zposition Zrotation Xrotation Yrotation 
						JOINT LowerArm_L
						{
							OFFSET 24.3286 1.87007e-05 0.0
							CHANNELS 6 Xposition Yposition Zposition Zrotation Xrotation Yrotation 
							JOINT Hand_L
							{
								OFFSET 22.2916 0.0 0.0
								CHANNELS 6 Xposition Yposition Zposition Zrotation Xrotation Yrotation 
								End Site
								{
									OFFSET 0.0 0.0 0.0
								}
							}
						}
					}
				}
				JOINT Shoulder_R
				{
					OFFSET 12.9945 -0.242716 -4.98039
					CHANNELS 6 Xposition Yposition Zposition Zrotation Xrotation Yrotation 
					JOINT UpperArm_R
					{
						OFFSET -5.34813 0.0 0.0
						CHANNELS 6 Xposition Yposition Zposition Zrotation Xrotation Yrotation 
						JOINT LowerArm_R
						{
							OFFSET -24.3289 0.000322201 0.0
							CHANNELS 6 Xposition Yposition Zposition Zrotation Xrotation Yrotation 
							JOINT Hand_R
							{
								OFFSET -22.2915 -0.000108084 0.0
								CHANNELS 6 Xposition Yposition Zposition Zrotation Xrotation Yrotation 
								End Site
								{
									OFFSET 0.0 0.0 0.0
								}
							}
						}
					}
				}
			}
		}
		JOINT UpperLeg_L
		{
			OFFSET -2.19248 -6.46944 0.0
			CHANNELS 6 Xposition Yposition Zposition Zrotation Xrotation Yrotation 
			JOINT LowerLeg_L
			{
				OFFSET 39.0811 0.0 -1.23785e-05
				CHANNELS 6 Xposition Yposition Zposition Zrotation Xrotation Yrotation 
				JOINT Foot_L
				{
					OFFSET 40.9854 0.0 -1.26872e-05
					CHANNELS 6 Xposition Yposition Zposition Zrotation Xrotation Yrotation 
					JOINT Toes_L
					{
						OFFSET 11.7543 0.0 0.0
						CHANNELS 6 Xposition Yposition Zposition Zrotation Xrotation Yrotation 
						End Site
						{
							OFFSET 0.0 0.0 0.0
						}
					}
				}
			}
		}
		JOINT UpperLeg_R
		{
			OFFSET -2.19251 6.46944 0.0
			CHANNELS 6 Xposition Yposition Zposition Zrotation Xrotation Yrotation 
			JOINT LowerLeg_R
			{
				OFFSET -39.0811 -0.00228153 -0.0401928
				CHANNELS 6 Xposition Yposition Zposition Zrotation Xrotation Yrotation 
				JOINT Foot_R
				{
					OFFSET -40.9854 0.0 0.0
					CHANNELS 6 Xposition Yposition Zposition Zrotation Xrotation Yrotation 
					JOINT Toes_R
					{
						OFFSET -11.7543 0.0 0.0
						CHANNELS 6 Xposition Yposition Zposition Zrotation Xrotation Yrotation 
						End Site
						{
							OFFSET 0.0 0.0 0.0
						}
					}
				}
			}
		}
	}
}
MOTION
Frames:	6
Frame Time:	0.0333333
0.000000 0.000000 0.000000 0.000000 0.000000 -0.000000 -1.624120 92.340700 -3.574270 87.457600 0.025179 2.659780 15.735700 0.000005 -0.000001 81.906500 87.382800 -81.777100 8.984550 -0.406207 -0.000000 -2.583080 -0.748372 0.241850 16.377300 -0.000001 -0.000001 -4.466050 -1.338270 -0.285109 6.456720 -0.000001 -0.000000 -6.116970 -1.235280 6.661120 12.994200 -0.242716 4.980390 -84.844600 -11.415400 -65.494100 5.348090 -0.000007 -0.000001 -59.097700 -52.741200 -85.176700 24.328600 0.000019 0.000005 8.538200 4.290950 -63.509700 22.291600 -0.000001 0.000005 42.232400 5.628990 -13.261400 12.994500 -0.242716 -4.980390 91.495800 -3.621350 -67.539100 -5.348130 -0.000001 -0.000004 -45.413300 -53.104100 -91.008100 -24.328900 0.000322 -0.000009 3.641770 3.047180 -50.140400 -22.291500 -0.000108 -0.000004 46.718700 5.502410 -6.630910 -2.192480 -6.469440 -0.000000 -168.236000 -15.763500 -4.254450 39.081100 -0.000007 -0.000012 -0.145976 0.414741 19.390700 40.985400 -0.000006 -0.000013 -6.805220 2.975000 -60.456300 11.754300 -0.000000 0.000003 -0.000109 -0.001107 -16.620000 -2.192510 6.469440 -0.000001 175.987000 20.126400 177.216000 -39.081100 -0.002282 -0.040193 0.016085 -0.037416 18.833400 -40.985400 0.000008 0.000006 -0.906056 1.862220 -61.863600 -11.754300 -0.000006 -0.000006 -0.006678 -0.076873 -19.702300
0.000000 0.000000 0.000000 0.000000 0.000000 -0.000000 -1.587060 92.342800 -3.498600 87.470400 0.015518 2.620700 15.735700 0.000005 -0.000001 81.501800 87.381200 -81.374400 8.984550 -0.406207 -0.000000 -2.585160 -0.785247 0.237031 16.377300 -0.000001 -0.000001 -4.410960 -1.347170 -0.288457 6.456720 -0.000001 -0.000000 -6.116280 -1.215120 6.659350 12.994200 -0.242716 4.980390 -84.834800 -11.397300 -65.418700 5.348090 -0.000007 -0.000001 -59.078200 -52.797200 -85.210000 24.328600 0.000019 0.000005 8.589950 4.366410 -63.251200 22.291600 -0.000001 0.000005 42.101500 5.629370 -13.289600 12.994500 -0.242716 -4.980390 91.491500 -3.592460 -67.434600 -5.348130 -0.000001 -0.000004 -45.245600 -53.147900 -90.910700 -24.328900 0.000322 -0.000009 3.636220 3.052370 -50.049300 -22.291500 -0.000108 -0.000004 46.698700 5.503010 -6.655310 -2.192480 -6.469440 -0.000000 -168.263000 -15.762500 -4.213950 39.081100 -0.000007 -0.000012 -0.147632 0.420230 19.357100 40.985400 -0.000006 -0.000013 -6.801200 2.968930 -60.505000 11.754300 -0.000000 0.000003 -0.000129 -0.001279 -16.626300 -2.192510 6.469440 -0.000001 175.951000 20.147800 177.260000 -39.081100 -0.002282 -0.040193 0.018527 -0.044705 18.782500 -40.985400 0.000008 0.000006 -0.892340 1.885720 -61.886600 -11.754300 -0.000006 -0.000006 -0.006895 -0.078762 -19.779400
0.000000 0.000000 0.000000 0.000000 0.000000 -0.000000 -1.547960 92.332900 -3.407900 87.475800 -0.034295 2.573780 15.735700 0.000005 -0.000001 81.248200 87.387200 -81.111000 8.984550 -0.406207 -0.000000 -2.600460 -0.807220 0.256072 16.377300 -0.000001 -0.000001 -4.346860 -1.342200 -0.301602 6.456720 -0.000001 -0.000000 -6.107780 -1.210810 6.611870 12.994200 -0.242716 4.980390 -84.829800 -11.402300 -65.407000 5.348090 -0.000007 -0.000001 -58.964000 -52.929200 -85.076200 24.328600 0.000019 0.000005 8.542800 4.374090 -63.081800 22.291600 -0.000001 0.000005 41.767700 5.625290 -12.991400 12.994500 -0.242716 -4.980390 91.486800 -3.566870 -67.353400 -5.348130 -0.000001 -0.000004 -45.167200 -53.173000 -90.888600 -24.328900 0.000322 -0.000009 3.679480 3.098750 -49.958700 -22.291500 -0.000108 -0.000004 46.506100 5.503980 -6.695010 -2.192480 -6.469440 -0.000000 -168.292000 -15.800500 -4.221690 39.081100 -0.000007 -0.000012 -0.146915 0.416062 19.448700 40.985400 -0.000006 -0.000013 -6.786090 2.952920 -60.631700 11.754300 -0.000000 0.000003 -0.000103 -0.001055 -16.618000 -2.192510 6.469440 -0.000001 175.899000 20.163800 177.278000 -39.081100 -0.002282 -0.040193 0.015768 -0.036607 18.775400 -40.985400 0.000008 0.000006 -1.013480 1.963630 -61.921600 -11.754300 -0.000006 -0.000006 -0.006668 -0.076787 -19.698800
0.000000 0.000000 0.000000 0.000000 0.000000 -0.000000 -1.505470 92.331400 -3.308710 87.469100 -0.103025 2.572520 15.735700 0.000005 -0.000001 81.451200 87.382300 -81.308300 8.984550 -0.406207 -0.000000 -2.587990 -0.790876 0.267956 16.377300 -0.000001 -0.000001 -4.262080 -1.362420 -0.304410 6.456720 -0.000001 -0.000000 -6.130990 -1.236300 6.613220 12.994200 -0.242716 4.980390 -84.826000 -11.383600 -65.356100 5.348090 -0.000007 -0.000001 -59.058400 -52.917000 -85.199000 24.328600 0.000019 0.000005 8.539360 4.410370 -62.881100 22.291600 -0.000001 0.000005 41.503800 5.626650 -13.089400 12.994500 -0.242716 -4.980390 91.456500 -3.482840 -67.288900 -5.348130 -0.000001 -0.000004 -45.063200 -53.246400 -90.837800 -24.328900 0.000322 -0.000009 3.794490 3.208580 -49.847500 -22.291500 -0.000108 -0.000004 46.176200 5.504930 -6.733530 -2.192480 -6.469440 -0.000000 -168.292000 -15.866300 -4.143670 39.081100 -0.000007 -0.000012 -0.147988 0.418448 19.476800 40.985400 -0.000006 -0.000013 -6.773080 2.928480 -60.727900 11.754300 -0.000000 0.000003 -0.000114 -0.001155 -16.621700 -2.192510 6.469440 -0.000001 175.857000 20.165300 177.358000 -39.081100 -0.002282 -0.040193 0.017592 -0.042054 18.741400 -40.985400 0.000008 0.000006 -0.909157 2.040360 -61.962900 -11.754300 -0.000006 -0.000006 -0.006485 -0.075177 -19.633100
0.000000 0.000000 0.000000 0.000000 0.000000 -0.000000 -1.477350 92.324000 -3.220520 87.461500 -0.202303 2.505750 15.735700 0.000005 -0.000001 81.540200 87.382200 -81.384100 8.984550 -0.406207 -0.000000 -2.586510 -0.784069 0.294543 16.377300 -0.000001 -0.000001 -4.262620 -1.335300 -0.312631 6.456720 -0.000001 -0.000000 -6.098230 -1.231210 6.603280 12.994200 -0.242716 4.980390 -84.837200 -11.334300 -65.310000 5.348090 -0.000007 -0.000001 -59.145500 -52.971600 -85.278600 24.328600 0.000019 0.000005 8.433010 4.370800 -62.794500 22.291600 -0.000001 0.000005 41.467400 5.626750 -13.097200 12.994500 -0.242716 -4.980390 91.454600 -3.482560 -67.313700 -5.348130 -0.000001 -0.000004 -44.927500 -53.405600 -90.660200 -24.328900 0.000322 -0.000009 3.951750 3.354370 -49.744000 -22.291500 -0.000108 -0.000004 46.149300 5.508220 -6.868400 -2.192480 -6.469440 -0.000000 -168.287000 -15.881200 -4.130270 39.081100 -0.000007 -0.000012 -0.150688 0.425306 19.509600 40.985400 -0.000006 -0.000013 -6.785480 2.910210 -60.832500 11.754300 -0.000000 0.000003 -0.000112 -0.001133 -16.620900 -2.192510 6.469440 -0.000001 175.835000 20.195800 177.343000 -39.081100 -0.002282 -0.040193 0.016545 -0.038983 18.734200 -40.985400 0.000008 0.000006 -0.931487 2.155170 -61.994800 -11.754300 -0.000006 -0.000006 -0.006534 -0.075608 -19.650700
0.000000 0.000000 0.000000 0.000000 0.000000 -0.000000 -1.449770 92.328500 -3.141210 87.481600 -0.246367 2.512780 15.735700 0.000005 -0.000001 81.626200 87.357200 -81.471200 8.984550 -0.406207 -0.000000 -2.535780 -0.783425 0.292714 16.377300 -0.000001 -0.000001 -4.227690 -1.332620 -0.306646 6.456720 -0.000001 -0.000000 -6.157380 -1.225530 6.594550 12.994200 -0.242716 4.980390 -84.841700 -11.330200 -65.321500 5.348090 -0.000007 -0.000001 -59.378600 -53.038800 -85.347700 24.328600 0.000019 0.000005 8.498230 4.373680 -62.961000 22.291600 -0.000001 0.000005 41.317200 5.625660 -13.018500 12.994500 -0.242716 -4.980390 91.434900 -3.425800 -67.257000 -5.348130 -0.000001 -0.000004 -44.820400 -53.520100 -90.564500 -24.328900 0.000322 -0.000009 4.119250 3.508650 -49.651400 -22.291500 -0.000108 -0.000004 46.052600 5.508570 -6.882740 -2.192480 -6.469440 -0.000000 -168.336000 -15.918200 -4.050260 39.081100 -0.000007 -0.000012 -0.147199 0.415820 19.493900 40.985400 -0.000006 -0.000013 -6.769400 2.814000 -60.887500 11.754300 -0.000000 0.000003 -0.000105 -0.001069 -16.618500 -2.192510 6.469440 -0.000001 175.782000 20.224300 177.429000 -39.081100 -0.002282 -0.040193 0.018070 -0.043608 18.682900 -40.985400 0.000008 0.000006 -0.877253 2.210610 -62.014700 -11.754300 -0.000006 -0.000006 -0.006422 -0.074626 -19.610600
